<svg width="14" height="16" viewBox="0 0 14 16" fill="none" xmlns="http://www.w3.org/2000/svg">
<path d="M5.87698 0.96169C5.86635 1.02716 5.86145 1.09341 5.86231 1.1597L5.86231 12.4474L5.74783 12.2013C5.63396 11.9607 5.47898 11.7418 5.28991 11.5544L2.12456 8.3891C1.72661 7.97221 1.08642 7.90217 0.607715 8.2231C0.0976031 8.59663 -0.0131553 9.31294 0.360369 9.82309C0.390563 9.8643 0.423475 9.90348 0.458892 9.94029L6.18285 15.6642C6.62968 16.1116 7.35451 16.112 7.80184 15.6651C7.80212 15.6649 7.80244 15.6645 7.80273 15.6642L13.5267 9.94029C13.9731 9.4926 13.9721 8.76777 13.5244 8.3213C13.4892 8.28617 13.4517 8.25337 13.4122 8.2231C12.9335 7.90217 12.2933 7.97221 11.8954 8.3891L8.72429 11.5487C8.55615 11.7167 8.41516 11.9098 8.30644 12.1211L8.15189 12.4646L8.15189 1.2227C8.17361 0.637892 7.7651 0.124811 7.19027 0.0149466C6.56618 -0.0862601 5.97822 0.337599 5.87698 0.96169Z" fill="white"/>
</svg>
